<svg version="1.1" width="30" height="34" viewBox="0 0 30 34" xmlns="http://www.w3.org/2000/svg">
 <style>.st0{fill:#7289DA;}</style>
 <rect x="1" y="4" width="28" height="20" ry="0" fill="#fff"/>
 <path class="st0" d="m11.834 14.307c-.97197 0-1.7393.8526-1.7393 1.8928 0 1.0402.78439 1.8928 1.7393 1.8928.97197 0 1.7393-.8526 1.7393-1.8928.01705-1.0402-.76734-1.8928-1.7393-1.8928zm6.224 0c-.97197 0-1.7393.8526-1.7393 1.8928 0 1.0402.78439 1.8928 1.7393 1.8928.97197 0 1.7393-.8526 1.7393-1.8928 0-1.0402-.76734-1.8928-1.7393-1.8928z"/>
 <path class="st0" d="m26.345 0h-22.85c-1.9269 0-3.4957 1.5688-3.4957 3.5127v23.054c0 1.9439 1.5688 3.5127 3.4957 3.5127h19.337l-.90376-3.1546 2.1827 2.0292 2.0633 1.9098 3.6662 3.2399v-30.591c0-1.9439-1.5688-3.5127-3.4957-3.5127zm-6.5821 22.27s-.61387-.73324-1.1254-1.3812c2.2338-.63092 3.0864-2.0292 3.0864-2.0292-.69914.4604-1.3642.78439-1.961 1.0061-.8526.35809-1.6711.59682-2.4725.73324-1.637.30694-3.1376.22168-4.4165-.01705-.97197-.18757-1.8075-.4604-2.5067-.73324-.3922-.15347-.8185-.34104-1.2448-.57977-.051156-.0341-.10231-.05115-.15347-.08526-.034104-.01705-.051156-.0341-.068208-.05115-.30694-.17052-.47746-.28988-.47746-.28988s.8185 1.3642 2.9841 2.0121c-.51156.64798-1.1425 1.4153-1.1425 1.4153-3.7685-.11936-5.2009-2.5919-5.2009-2.5919 0-5.4908 2.4555-9.9413 2.4555-9.9413 2.4555-1.8416 4.7916-1.7905 4.7916-1.7905l.17052.20462c-3.0694.88671-4.4847 2.2338-4.4847 2.2338s.37514-.20462 1.0061-.49451c1.8246-.80145 3.274-1.0231 3.8708-1.0743.10231-.017052.18757-.034104.28988-.034104 1.0402-.13642 2.2168-.17052 3.4445-.034105 1.6199.18757 3.3593.66503 5.1327 1.637 0 0-1.3471-1.2789-4.246-2.1656l.23873-.27283s2.3361-.051156 4.7916 1.7905c0 0 2.4555 4.4506 2.4555 9.9413 0 0-1.4494 2.4725-5.2179 2.5919z"/>
</svg>
