<svg width="174" height="36" version="1.1" viewBox="0 0 46.037 9.525" xmlns="http://www.w3.org/2000/svg">
 <g transform="translate(2.3812 .26458)" fill="#333" aria-label="Plywood">
  <path d="m14.788 1.832q.7554 0 1.2493.39223.50118.39223.50118 1.1476 0 .50844-.2397.86435-.23243.35591-.63192.53023-.39223.17432-.87888.17432h-1.3365v1.7796q0 .079898-.05811.13801-.05811.058108-.13801.058108h-.2978q-.0799 0-.13801-.058108-.05811-.058108-.05811-.13801v-4.6922q0-.079898.05811-.13801t.13801-.058108zm-.03632 2.4551q.53023 0 .81351-.22517.28328-.23243.28328-.69003 0-.88614-1.0968-.88614h-1.3002v1.8013z"/>
  <path d="m17.991 6.7203q0 .079898-.05811.13801-.05811.058108-.13801.058108h-.26875q-.0799 0-.13801-.058108-.05811-.058108-.05811-.13801v-4.7648q0-.079898.05811-.13801t.13801-.058108h.26875q.0799 0 .13801.058108.05811.058108.05811.13801z"/>
  <path d="m20.192 8.1222q-.065371.17432-.21064.17432h-.2978q-.07263 0-.12348-.050844-.05084-.050844-.05084-.12348 0-.029054.0073-.050844l.69725-1.5181-1.4382-3.1887q-.0073-.02179-.0073-.050844 0-.072635.05084-.12348t.12348-.050844h.2978q.14527 0 .21064.17432l1.1186 2.4696 1.1331-2.4696q.06537-.17432.21064-.17432h.2978q.07264 0 .12348.050844.05084.050844.05084.12348 0 .029054-.0073.050844z"/>
  <path d="m27.492 3.3138q.06537-.17432.24696-.17432h.2397q.07263 0 .12348.050844.05084.050844.05084.12348l-.0073.058108-1.1113 3.3412q-.06537.20338-.2179.20338h-.22517q-.08716 0-.13801-.050844-.05084-.058108-.08716-.15253l-.86432-2.4115-.86435 2.4115q-.03632.094425-.08716.15253-.05085.050844-.13801.050844h-.22517q-.15253 0-.2179-.20338l-1.1113-3.3412-.0073-.058108q0-.072635.05084-.12348t.12348-.050844h.2397q.18159 0 .24696.17432l.81351 2.426.87162-2.426q.06537-.17432.22517-.17432h.1598q.1598 0 .22517.17432l.87162 2.426z"/>
  <path d="m32.235 4.6866q.01453.1598.01453.34865 0 .17432-.01453.33412-.06537.74087-.51571 1.1839-.44307.43581-1.2057.43581-.76266 0-1.213-.43581-.44307-.44307-.50844-1.1839-.0073-.079898-.0073-.33412 0-.26875.0073-.34865.05811-.74087.50844-1.1767.45034-.44307 1.213-.44307.76266 0 1.213.44307.45034.43581.50844 1.1767zm-.66098.036317q-.043581-.46486-.31233-.74814-.26148-.28328-.74814-.28328-.48665 0-.7554.28328-.26148.28328-.30507.74814-.0073.087162-.0073.31233 0 .2179.0073.2978.04358.46486.30507.74814.26875.28328.7554.28328.48665 0 .74814-.28328.26875-.28328.31233-.74814.01453-.1598.01453-.2978 0-.13801-.01453-.31233z"/>
  <path d="m36.426 4.6866q.01453.1598.01453.34865 0 .17432-.01453.33412-.06537.74087-.51571 1.1839-.44307.43581-1.2057.43581-.76266 0-1.213-.43581-.44307-.44307-.50844-1.1839-.0073-.079898-.0073-.33412 0-.26875.0073-.34865.05811-.74087.50844-1.1767.45034-.44307 1.213-.44307.76266 0 1.213.44307.45034.43581.50844 1.1767zm-.66098.036317q-.043581-.46486-.31233-.74814-.26148-.28328-.74814-.28328-.48665 0-.7554.28328-.26148.28328-.30507.74814-.0073.087162-.0073.31233 0 .2179.0073.2978.04358.46486.30507.74814.26875.28328.7554.28328.48665 0 .74814-.28328.26875-.28328.31233-.74814.01453-.1598.01453-.2978 0-.13801-.01453-.31233z"/>
  <path d="m39.942 1.9555q0-.079898.05811-.13801t.13801-.058108h.26875q.0799 0 .13801.058108.05811.058108.05811.13801v4.7648q0 .079898-.05811.13801-.05811.058108-.13801.058108h-.26875q-.0799 0-.13801-.058108-.05811-.058108-.05811-.13801v-.22517q-.37044.49392-1.1258.49392-.45034 0-.82077-.21064-.36317-.21064-.58834-.60287-.2179-.39223-.23969-.9152l-.0073-.23969.0073-.23243q.02179-.52297.23969-.90793.22517-.39223.58834-.60287.36317-.21064.82077-.21064.40676 0 .68277.14527.28328.13801.44307.34865zm0 2.811q-.02179-.50844-.30506-.79172-.28328-.28328-.74814-.28328-.47212 0-.7554.30507-.27601.30507-.30507.82804l-.0073.20338.0073.20338q.02905.52297.30507.82804.28328.30507.7554.30507.45034 0 .74087-.27601.29054-.28328.31233-.74814.0073-.072635.0073-.29054 0-.21064-.0073-.28328z"/>
 </g>
 <g>
  <path d="m7.4083 1.3229-4.4979 1.905v.84677l4.4979 2.1167 4.4979-2.1167v-.84677zm0 .26458 4.2018 1.7792-4.2018 1.9777-4.2018-1.9777z" color="#000000" color-rendering="auto" dominant-baseline="auto" fill="#f76942" fill-rule="evenodd" image-rendering="auto" shape-rendering="auto" solid-color="#000000" stop-color="#000000" style="font-feature-settings:normal;font-variant-alternates:normal;font-variant-caps:normal;font-variant-east-asian:normal;font-variant-ligatures:normal;font-variant-numeric:normal;font-variant-position:normal;font-variation-settings:normal;inline-size:0;isolation:auto;mix-blend-mode:normal;shape-margin:0;shape-padding:0;text-decoration-color:#000000;text-decoration-line:none;text-decoration-style:solid;text-indent:0;text-orientation:mixed;text-transform:none;white-space:normal"/>
  <path d="m2.9104 5.5562v.84667l4.4979 2.1167 4.4979-2.1167v-.84667l-4.4979 2.1167z" fill="#3393ce"/>
  <path d="m2.9104 4.3921v.84667l4.4979 2.1167 4.4979-2.1167v-.84667l-4.4979 2.1167z" fill="#31ce31"/>
 </g>
</svg>
