<?xml version="1.0" encoding="UTF-8" standalone="no"?>
<svg xmlns:rdf="http://www.w3.org/1999/02/22-rdf-syntax-ns#" xmlns="http://www.w3.org/2000/svg" height="35" width="178" version="1.1" xmlns:cc="http://creativecommons.org/ns#" xmlns:dc="http://purl.org/dc/elements/1.1/" viewBox="0 0 178 35.000003">
 <g transform="matrix(.25126 0 0 .25126 -130.76 -65.153)" fill="#536675">
  <path d="m1155.8 334.01c0-5.4114.5891-10.212 1.7674-14.401 1.1782-4.1895 2.7493-7.5935 4.7132-10.212 1.9638-2.6184 4.3204-4.7568 7.0698-6.4152 2.7493-1.702 5.5641-2.8803 8.4444-3.5349 2.9239-.69825 6.0442-1.0474 9.3609-1.0474 3.8404 0 7.6153.43641 11.325 1.3092v-13.289c-4.1895-1.1347-7.2443-2.7275-9.1645-4.7786l1.3747-10.343c3.3166-.78553 7.6589-1.3092 13.027-1.5711 2.182-.0873 4.2331-.13092 6.1533-.13092 2.7494 0 5.1932.1091 7.3316.3273v80.451c2.5312.39277 4.9969 1.1565 7.3971 2.2911v10.605c-5.3242 2.8366-12.11 4.255-20.358 4.255-.8728-.39276-1.7456-1.1783-2.6184-2.3566-.8292-1.1783-1.3093-2.313-1.4402-3.404-1.9202 1.6583-4.4514 3.033-7.5934 4.124-3.1422 1.091-6.2407 1.6365-9.2955 1.6365-9.6446 0-16.649-2.5966-21.013-7.7898-4.3204-5.2369-6.4806-13.812-6.4806-25.726zm19.311-.78553c0 7.5498.8946 12.874 2.6839 15.972 1.7892 3.0985 4.5604 4.6477 8.3135 4.6477 5.106 0 9.23-1.5056 12.372-4.5168v-35.938c-3.6658-.87281-7.3316-1.3092-10.997-1.3092-4.5386 0-7.7462 1.8111-9.6227 5.4333-1.833 3.5785-2.7494 8.8154-2.7494 15.711zm-90.401 0c0-11.216 2.8148-19.813 8.4444-25.792 5.6732-6.0224 13.812-9.0336 24.417-9.0336 10.736 0 18.656 2.6839 23.762 8.0517 5.1496 5.3678 7.7244 13.856 7.7244 25.464 0 11.216-2.8803 19.966-8.6408 26.25-5.717 6.2406-13.878 9.3609-24.482 9.3609-10.605 0-18.46-2.793-23.566-8.379-5.106-5.6296-7.6589-14.27-7.6589-25.922zm19.311-.78553c0 14.27 4.2986 21.406 12.896 21.406 4.3204 0 7.528-1.6365 9.6228-4.9096 2.1383-3.273 3.2075-8.5972 3.2075-15.972 0-7.3753-1.1129-12.699-3.3385-15.972-2.2257-3.273-5.4769-4.9096-9.7536-4.9096-4.2768 0-7.4626 1.5492-9.5573 4.6477-2.0512 3.0985-3.0767 8.3354-3.0767 15.711zm-90.27.78553c0-11.216 2.8148-19.813 8.4445-25.792 5.6732-6.0224 13.812-9.0336 24.417-9.0336 10.736 0 18.656 2.6839 23.762 8.0517 5.1496 5.3678 7.7244 13.856 7.7244 25.464 0 11.216-2.8803 19.966-8.6408 26.25-5.717 6.2406-13.878 9.3609-24.482 9.3609-10.605 0-18.46-2.793-23.566-8.379-5.106-5.6296-7.6589-14.27-7.6589-25.922zm19.311-.78553c0 14.27 4.2985 21.406 12.896 21.406 4.3204 0 7.528-1.6365 9.6228-4.9096 2.1384-3.273 3.2076-8.5972 3.2076-15.972 0-7.3753-1.1129-12.699-3.3385-15.972-2.2257-3.273-5.4769-4.9096-9.7537-4.9096s-7.4626 1.5492-9.5573 4.6477c-2.0511 3.0985-3.0766 8.3354-3.0766 15.711zm-129.61-22.649 1.3747-10.343h31.356l1.3092 10.343c-1.6147 1.8766-4.3422 3.4694-8.1826 4.7786l.98191 3.9276 6.8079 30.308h1.8984c.9601-4.7568 2.1166-9.6446 3.4694-14.663l9.0991-34.432h15.056l8.9681 34.171c.61097 2.2257 1.1783 4.5823 1.702 7.0698.56733 2.4875.98192 4.4077 1.2438 5.7606l.39276 2.0948h1.8984c3.273-15.1 5.4987-25.246 6.677-30.439l.78553-3.7967c-3.9713-1.3529-6.6334-2.9457-7.9862-4.7786l1.3092-10.343h29.785l1.3092 10.343c-1.5711 2.0948-4.3859 3.7967-8.4444 5.106l-16.758 52.369h-17.413l-6.8734-21.144c-.69825-2.182-1.3747-4.8877-2.0293-8.1171-.61096-3.2294-1.0474-5.9133-1.3092-8.0517l-.39276-3.1421h-1.8984c-.8728 6.9825-2.2038 13.376-3.9931 19.18l-6.2842 21.275h-19.049l-16.889-52.696c-3.8404-1.3529-6.4806-2.9457-7.9208-4.7786zm-81.128 0 1.3092-10.343h30.832l1.3747 10.343q-1.6365 2.1602-5.8915 3.8622l7.3316 20.227q1.1783 3.273 2.0948 6.8734.98191 3.6004 1.3092 5.5642l.39276 1.8984h1.8329q1.1128-6.677 3.7967-14.074l7.0698-19.835q-5.0405-1.8984-6.9388-4.5168l1.3092-10.343h29.523l1.3092 10.343q-2.422 3.2076-8.8372 5.2369l-22.126 52.238q-5.2369 12.241-7.528 16.103-4.5823 7.6589-10.801 9.8191-3.273 1.1783-7.3971 1.1783-10.867 0-16.365-5.4987-.0655-.91645-.0655-1.8984 0-3.0767.65461-6.7425.85099-4.7132 2.3566-7.9862h11.128q2.0947 3.7967 2.2911 9.8191h1.8984q2.422 0 5.106-4.5168 2.7494-4.5168 3.8622-10.67l-21.995-51.976q-6.5461-2.0948-8.8372-5.106zm-35.691 46.346c1.2219-1.6583 3.6658-3.1639 7.3316-4.5168v-65.461c-3.0548-1.0474-5.4987-2.553-7.3316-4.5168l1.3092-10.343c3.3603-.78553 7.4189-1.3092 12.176-1.5711 1.9202-.0873 3.7749-.13092 5.5642-.13092 2.5748 0 4.9314.1091 7.0698.3273v81.695c3.4912 1.3529 5.9569 2.8585 7.3971 4.5168l-1.3747 10.343h-30.832zm-78.749-.78553c1.1783-1.6147 3.6222-3.0985 7.3316-4.4513v-61.271c-3.6658-1.3529-6.1097-2.8585-7.3316-4.5168l1.3092-11.128h35.545c4.8441.0873 9.0772.43641 12.699 1.0474 3.6658.56733 7.0698 1.5492 10.212 2.9457 3.1421 1.3528 5.7169 3.1421 7.7244 5.3678s3.5567 5.0623 4.6477 8.5099c1.1346 3.404 1.702 7.4189 1.702 12.045 0 5.4987-.96009 10.234-2.8803 14.205-1.9202 3.9713-4.735 7.1352-8.4445 9.4918-3.7094 2.313-8.008 4.0149-12.896 5.106-4.8878 1.0474-10.539 1.5711-16.954 1.5711h-6.0224v15.842c6.4152 1.3965 10.474 3.1421 12.176 5.2369l-1.3092 11.128h-36.2zm26.643-35.676h8.9681c6.0224 0 10.539-1.2001 13.55-3.6003 3.0548-2.4439 4.5823-6.6116 4.5823-12.503 0-2.5312-.34912-4.7132-1.0474-6.5461-.65461-1.8329-1.5274-3.273-2.6184-4.3204-1.0474-1.091-2.422-1.942-4.124-2.553-1.702-.65461-3.4258-1.0692-5.1714-1.2438-1.702-.2182-3.7313-.3273-6.0879-.3273h-8.0517z" fill="#536675"/>
 </g>
 <path d="m7.2847 1.6913a.22654 .22654 0 0 0 -.2081 .1367l-5.0666 11.818a.22654 .22654 0 0 0 .20808 .31576h1.7203a.22654 .22654 0 0 0 .2081 -.137l5.0738-11.818a.22654 .22654 0 0 0 -.208 -.3157h-1.7276zm8.7855 0a.22654 .22654 0 0 0 -.208 .1367l-5.067 11.818a.22654 .22654 0 0 0 .20808 .31576h1.7203a.22654 .22654 0 0 0 .209 -.137l5.074-11.818a.22654 .22654 0 0 0 -.208 -.3157h-1.7276zm8.7849 0a.22654 .22654 0 0 0 -.208 .1367l-5.067 11.818a.22654 .22654 0 0 0 .20809 .31576h1.7203a.22654 .22654 0 0 0 .209 -.137l5.074-11.818a.22654 .22654 0 0 0 -.208 -.3157h-1.7282zm4.0601 0a.22654 .22654 0 0 0 -.208 .3158l5.067 11.818a.22654 .22654 0 0 0 .20808 .1367h1.7276a.22654 .22654 0 0 0 .20808 -.31576l-5.074-11.818a.22654 .22654 0 0 0 -.209 -.1367h-1.7203zm-26.356 15.756a.22654 .22654 0 0 0 -.20808 .31576l5.0666 11.817a.22654 .22654 0 0 0 .20808 .13671h1.7276a.22654 .22654 0 0 0 .2081 -.316l-5.0739-11.817a.22654 .22654 0 0 0 -.2081 -.137h-1.7203zm8.7855 0a.22654 .22654 0 0 0 -.20809 .31576l5.0666 11.817a.22654 .22654 0 0 0 .20808 .13671h1.7276a.22654 .22654 0 0 0 .20808 -.31576l-5.0739-11.817a.22654 .22654 0 0 0 -.208 -.137h-1.7203zm8.7849 0a.22654 .22654 0 0 0 -.20808 .31576l5.0666 11.817a.22654 .22654 0 0 0 .20809 .13671h1.7282a.22654 .22654 0 0 0 .20809 -.31576l-5.075-11.817a.22654 .22654 0 0 0 -.208 -.137h-1.7203zm13.511 0a.22654 .22654 0 0 0 -.20808 .13671l-5.0666 11.817a.22654 .22654 0 0 0 .20809 .31576h1.7203a.22654 .22654 0 0 0 .20809 -.13671l5.0739-11.817a.22654 .22654 0 0 0 -.207 -.316h-1.7276z" fill="#fff"/>
</svg>
